<svg xmlns="http://www.w3.org/2000/svg" viewBox="0 0 10.63 8.5"><defs><style>.cls-1{fill:#88cee9;}.cls-2{fill:#31b1cb;}.cls-3{fill:#010101;}</style></defs><title>Asset 89</title><g id="Layer_2" data-name="Layer 2"><g id="Layer_1-2" data-name="Layer 1"><path class="cls-1" d="M9.74,6.56a.18.18,0,0,1-.17-.18A.53.53,0,0,0,9,5.85a.18.18,0,0,1,0-.36A.53.53,0,0,0,9.57,5a.18.18,0,0,1,.17-.18A.18.18,0,0,1,9.92,5a.53.53,0,0,0,.53.53.18.18,0,0,1,0,.36.53.53,0,0,0-.53.53A.18.18,0,0,1,9.74,6.56Zm-.17-.89a1,1,0,0,1,.17.18.77.77,0,0,1,.18-.18.77.77,0,0,1-.18-.18A1,1,0,0,1,9.57,5.67Z"/><path class="cls-2" d="M8,8A.17.17,0,0,1,7.8,7.8a.54.54,0,0,0-.54-.54.18.18,0,0,1-.17-.17.18.18,0,0,1,.17-.18.54.54,0,0,0,.54-.53A.17.17,0,0,1,8,6.2a.18.18,0,0,1,.18.18.53.53,0,0,0,.53.53.18.18,0,0,1,.18.18.18.18,0,0,1-.18.17.54.54,0,0,0-.53.54A.18.18,0,0,1,8,8ZM7.8,7.09A1.37,1.37,0,0,1,8,7.26a1,1,0,0,1,.18-.17A.77.77,0,0,1,8,6.91,1,1,0,0,1,7.8,7.09Z"/><path class="cls-3" d="M2.66,2.48a.18.18,0,0,1-.18-.18A.53.53,0,0,0,2,1.77a.18.18,0,0,1-.18-.18A.18.18,0,0,1,2,1.42.53.53,0,0,0,2.48.89.18.18,0,0,1,2.66.71a.17.17,0,0,1,.17.18.54.54,0,0,0,.54.53.18.18,0,0,1,.17.17.18.18,0,0,1-.17.18.54.54,0,0,0-.54.53A.17.17,0,0,1,2.66,2.48Zm-.18-.89a.77.77,0,0,1,.18.18,1,1,0,0,1,.17-.18,1.37,1.37,0,0,1-.17-.17A1,1,0,0,1,2.48,1.59Z"/><path class="cls-1" d="M.89,3.9a.18.18,0,0,1-.18-.18.53.53,0,0,0-.53-.53.18.18,0,1,1,0-.36A.53.53,0,0,0,.71,2.3a.18.18,0,0,1,.18-.17.18.18,0,0,1,.17.17.53.53,0,0,0,.53.53.18.18,0,1,1,0,.36.53.53,0,0,0-.53.53A.18.18,0,0,1,.89,3.9ZM.71,3a.77.77,0,0,1,.18.18A1,1,0,0,1,1.06,3a1,1,0,0,1-.17-.18A.77.77,0,0,1,.71,3Z"/><path class="cls-1" d="M1.59.18H9V8.33H1.59Z"/><path class="cls-2" d="M5.85,2a.18.18,0,0,1-.18-.18.17.17,0,0,1,0-.12L7.32.05a.18.18,0,0,1,.25,0,.18.18,0,0,1,0,.24L6,1.9A.18.18,0,0,1,5.85,2Z"/><path class="cls-2" d="M5.85,3a.18.18,0,0,1-.18-.18.18.18,0,0,1,0-.12L8.38.05a.18.18,0,0,1,.25,0,.16.16,0,0,1,0,.24L6,3a.18.18,0,0,1-.12,0Z"/><path class="cls-2" d="M4.78,8.5a.18.18,0,0,1-.17-.17.19.19,0,0,1,0-.13L6.25,6.61a.18.18,0,0,1,.25.25L4.91,8.45A.15.15,0,0,1,4.78,8.5Z"/><path class="cls-2" d="M3.72,8.5a.18.18,0,0,1-.18-.17A.16.16,0,0,1,3.6,8.2L6.25,5.54a.18.18,0,0,1,.25,0,.16.16,0,0,1,0,.24L3.85,8.45A.17.17,0,0,1,3.72,8.5Z"/><path class="cls-3" d="M10.45,5.49A.53.53,0,0,1,9.92,5a.18.18,0,0,0-.18-.18A.18.18,0,0,0,9.57,5a.54.54,0,0,1-.36.5V.18A.18.18,0,0,0,9,0H1.59a.18.18,0,0,0-.17.18V2.8a.53.53,0,0,1-.36-.5.18.18,0,0,0-.17-.17.18.18,0,0,0-.18.17.53.53,0,0,1-.53.53.18.18,0,1,0,0,.36.53.53,0,0,1,.53.53.18.18,0,0,0,.18.18.18.18,0,0,0,.17-.18.55.55,0,0,1,.36-.5V8.33a.18.18,0,0,0,.17.17H9a.18.18,0,0,0,.17-.17V5.88a.53.53,0,0,1,.36.5.18.18,0,0,0,.17.18.18.18,0,0,0,.18-.18.53.53,0,0,1,.53-.53.18.18,0,0,0,0-.36ZM.89,3.19A.77.77,0,0,0,.71,3a.77.77,0,0,0,.18-.18A1,1,0,0,0,1.06,3,1,1,0,0,0,.89,3.19Zm8,3.9V8.15H5.21L6.5,6.86a.18.18,0,0,0-.25-.25L4.71,8.15H4.15L6.5,5.79a.18.18,0,0,0,0-.25.2.2,0,0,0-.25,0L3.65,8.15H1.77V.35H7L5.72,1.65A.18.18,0,0,0,6,1.9H6L7.51.35h.57L5.72,2.71A.18.18,0,0,0,6,3H6L8.58.35h.28Zm.88-1.24a1,1,0,0,0-.17-.18,1,1,0,0,0,.17-.18.77.77,0,0,0,.18.18A.77.77,0,0,0,9.74,5.85Z"/><path class="cls-3" d="M8.68,6.91a.53.53,0,0,1-.53-.53A.18.18,0,0,0,8,6.2a.17.17,0,0,0-.17.18.54.54,0,0,1-.54.53.18.18,0,0,0-.17.18.18.18,0,0,0,.17.17.54.54,0,0,1,.54.54A.17.17,0,0,0,8,8a.18.18,0,0,0,.18-.17.54.54,0,0,1,.53-.54.18.18,0,0,0,.18-.17A.18.18,0,0,0,8.68,6.91ZM8,7.26a1.37,1.37,0,0,0-.17-.17A1,1,0,0,0,8,6.91a.77.77,0,0,0,.18.18A1,1,0,0,0,8,7.26Z"/><path class="cls-3" d="M2,1.77a.53.53,0,0,1,.53.53.18.18,0,0,0,.18.18.17.17,0,0,0,.17-.18.54.54,0,0,1,.54-.53.18.18,0,0,0,.17-.18.18.18,0,0,0-.17-.17A.54.54,0,0,1,2.83.89.17.17,0,0,0,2.66.71a.18.18,0,0,0-.18.18A.53.53,0,0,1,2,1.42a.18.18,0,0,0-.18.17A.18.18,0,0,0,2,1.77Zm.71-.35a1.37,1.37,0,0,0,.17.17,1,1,0,0,0-.17.18.77.77,0,0,0-.18-.18A1,1,0,0,0,2.66,1.42Z"/></g></g></svg>