<svg xmlns="http://www.w3.org/2000/svg" viewBox="0 0 8.5 8.5"><defs><style>.cls-1{fill:#faa819;}.cls-2{fill:#fff;}.cls-3{fill:#fddd01;}.cls-4{fill:#010101;}</style></defs><title>Asset 88</title><g id="Layer_2" data-name="Layer 2"><g id="Layer_1-2" data-name="Layer 1"><path class="cls-1" d="M8.36,3.69l-.85.85-2.83,3H3.61a.79.79,0,0,1-.78-.78V5.46a.79.79,0,0,1,.78-.78H4.68L6.45,2.91a.79.79,0,0,0,.78.78Z"/><polygon class="cls-2" points="8.36 0.14 4.68 3.83 0.14 3.83 3.83 0.14 8.36 0.14"/><polygon class="cls-3" points="8.36 0.14 4.68 3.83 0.71 3.83 4.39 0.14 8.36 0.14"/><polygon class="cls-1" points="8.36 0.14 4.68 3.83 4.11 3.83 7.79 0.14 8.36 0.14"/><path class="cls-1" d="M2.83,5.46V6.73a.79.79,0,0,0,.78.78H4.68v.85H.14V7.51H1.2A.77.77,0,0,0,2,6.73V5.46a.77.77,0,0,0-.78-.78H.14V3.83H4.68v.85H3.61a.79.79,0,0,0-.78.78Z"/><path class="cls-3" d="M2.41,5.46V6.73a.79.79,0,0,0,.78.78H4.25v.85H.14V7.51H1.2A.77.77,0,0,0,2,6.73V5.46a.77.77,0,0,0-.78-.78H.14V3.83H4.25v.85H3.19a.79.79,0,0,0-.78.78Z"/><path class="cls-4" d="M4.68,4H.14A.14.14,0,0,1,0,3.88a.14.14,0,0,1,0-.15L2.45,1.32a.14.14,0,0,1,.2.2L.48,3.69H4.62L8,.28H3.89L3.5.67a.15.15,0,0,1-.2,0,.15.15,0,0,1,0-.2L3.73,0a.12.12,0,0,1,.1,0H8.36a.13.13,0,0,1,.13.09.12.12,0,0,1,0,.15L4.78,3.93a.21.21,0,0,1-.1,0Z"/><path class="cls-4" d="M3,1.12A.13.13,0,0,1,2.86,1a.09.09,0,0,1,0-.05.12.12,0,0,1,0-.1A.12.12,0,0,1,3,.84s0,0,0,0h0l0,0a.12.12,0,0,1,0,.1.09.09,0,0,1,0,.05l0,.05,0,0H3Z"/><polygon class="cls-1" points="7.09 4.96 7.51 4.54 4.68 7.51 4.66 7.51 7.09 4.96"/><path class="cls-3" d="M7.94,4.11,7.09,5,4.66,7.51H3.61a.79.79,0,0,1-.78-.78V5.46a.77.77,0,0,1,.06-.3.78.78,0,0,1,.72-.48H4.68L6,3.33a.79.79,0,0,0,.78.78Z"/><path class="cls-4" d="M4.68,7.65H3.61a.92.92,0,0,1-.92-.92V5.46a.92.92,0,0,1,.92-.92h1L6.35,2.81a.13.13,0,0,1,.15,0,.15.15,0,0,1,.09.14.64.64,0,0,0,.64.63H8.36a.14.14,0,0,1,.13.09.14.14,0,0,1,0,.16l-.85.85-2.83,3a.13.13,0,0,1-.1,0ZM3.61,4.82A.63.63,0,0,0,3,5.46V6.73a.64.64,0,0,0,.63.64h1L7.41,4.44,8,3.83H7.23a.92.92,0,0,1-.87-.63L4.78,4.78a.21.21,0,0,1-.1,0Z"/><polygon class="cls-1" points="8.36 0.14 8.36 0.99 4.68 4.68 4.68 3.83 8.36 0.14"/><polygon class="cls-1" points="8.36 3.69 8.36 4.54 7.51 5.39 4.68 8.36 4.68 7.51 7.51 4.54 8.36 3.69"/><polygon class="cls-3" points="7.94 0.57 7.94 1.42 4.68 4.68 4.68 3.83 7.94 0.57"/><polygon class="cls-3" points="7.94 4.11 7.94 4.96 7.09 5.81 4.68 8.34 4.68 7.51 7.51 4.54 7.94 4.11"/><path class="cls-4" d="M4.68,4.82a.14.14,0,0,1-.14-.14V3.83a.12.12,0,0,1,0-.1L8.26,0a.15.15,0,0,1,.16,0A.13.13,0,0,1,8.5.14V1a.12.12,0,0,1,0,.1L4.78,4.78A.21.21,0,0,1,4.68,4.82Zm.14-.93v.45L8.22.93V.48Z"/><rect class="cls-2" x="0.14" y="3.83" width="0.43" height="0.85"/><rect class="cls-2" x="0.14" y="7.51" width="0.43" height="0.85"/><path class="cls-4" d="M4.68,8.5H.14A.14.14,0,0,1,0,8.36V7.51a.14.14,0,0,1,.14-.14H1.2a.64.64,0,0,0,.64-.64V5.46a.63.63,0,0,0-.64-.64H.14A.14.14,0,0,1,0,4.68V3.83a.14.14,0,0,1,.14-.14H4.68a.14.14,0,0,1,.14.14v.85a.14.14,0,0,1-.14.14H3.61A.63.63,0,0,0,3,5.46V6.73a.64.64,0,0,0,.63.64H4.68a.14.14,0,0,1,.14.14v.85A.14.14,0,0,1,4.68,8.5ZM.28,8.22H4.54V7.65H3.61a.92.92,0,0,1-.92-.92V5.46a.92.92,0,0,1,.92-.92h.93V4H.28v.57H1.2a.93.93,0,0,1,.93.92V6.73a.93.93,0,0,1-.93.92H.28Z"/><path class="cls-4" d="M4.68,8.5a.14.14,0,0,1-.14-.14V7.51a.19.19,0,0,1,0-.1l2.84-3,.85-.86a.15.15,0,0,1,.16,0,.16.16,0,0,1,.08.14v.85a.14.14,0,0,1,0,.1l-.85.85-2.83,3A.13.13,0,0,1,4.68,8.5Zm.14-.93V8L7.41,5.29l.81-.81V4l-.61.61Z"/><path class="cls-2" d="M2,5.67V6.73a.77.77,0,0,1-.78.78H.14Z"/><path class="cls-3" d="M2,6.24v.49a.77.77,0,0,1-.78.78H.71Z"/><path class="cls-4" d="M1.2,7.65H.14A.13.13,0,0,1,0,7.57a.15.15,0,0,1,0-.16L1.88,5.57a.16.16,0,0,1,.16,0,.14.14,0,0,1,.09.13V6.73A.93.93,0,0,1,1.2,7.65ZM.48,7.37H1.2a.64.64,0,0,0,.64-.64V6Z"/><path class="cls-4" d="M3.54,6.94a.21.21,0,0,1-.1,0,.21.21,0,0,1,0-.1.15.15,0,1,1,.29,0,.16.16,0,0,1,0,.1.15.15,0,0,1-.1,0Z"/><path class="cls-4" d="M4,6.49a.13.13,0,0,1-.13-.08.15.15,0,0,1,0-.16L4,6.1a.15.15,0,0,1,.13,0,.18.18,0,0,1,.11.1.15.15,0,0,1,0,.14l-.14.15a.13.13,0,0,1-.1,0Z"/><path class="cls-4" d="M4.54,5.9a.14.14,0,0,1-.13-.09.12.12,0,0,1,0-.15l.14-.15a.15.15,0,0,1,.21,0,.15.15,0,0,1,0,.2l-.14.14a.16.16,0,0,1-.1.05Z"/><path class="cls-4" d="M5.1,5.3A.14.14,0,0,1,5,5.22a.14.14,0,0,1,0-.15l.14-.15a.14.14,0,1,1,.21.19l-.15.15A.12.12,0,0,1,5.1,5.3Z"/><path class="cls-4" d="M5.67,4.71a.13.13,0,0,1-.13-.09.14.14,0,0,1,0-.15l.14-.15a.14.14,0,0,1,.2,0,.13.13,0,0,1,0,.2l-.14.15a.12.12,0,0,1-.1,0Z"/><path class="cls-4" d="M6.24,4.12a.12.12,0,0,1-.1,0,.12.12,0,0,1,0-.09.17.17,0,0,1,.09-.14.15.15,0,0,1,.16,0,.21.21,0,0,1,0,.11.15.15,0,0,1,0,.09.16.16,0,0,1-.1,0Z"/></g></g></svg>