<svg xmlns="http://www.w3.org/2000/svg" viewBox="0 0 142.26 141.91"><defs><style>.cls-1{fill:#f5f5f5;}.cls-2,.cls-3,.cls-5,.cls-8{fill:#fff;}.cls-3{stroke:#aaa;stroke-width:0.09px;}.cls-4{fill:none;}.cls-4,.cls-5,.cls-6{stroke:#000;}.cls-4,.cls-8{stroke-width:0.18px;}.cls-5,.cls-6,.cls-9{stroke-width:0.44px;}.cls-10,.cls-15,.cls-16,.cls-18,.cls-20,.cls-22,.cls-7{isolation:isolate;font-weight:700;}.cls-20,.cls-22,.cls-7{font-size:7.09px;}.cls-10,.cls-7{font-family:Palatino-BoldItalic, Palatino;font-style:italic;}.cls-8,.cls-9{stroke:#ccc;}.cls-10,.cls-9{fill:#ccc;}.cls-10{font-size:6.2px;}.cls-11{letter-spacing:-0.02em;}.cls-12{letter-spacing:-0.02em;}.cls-13{letter-spacing:0em;}.cls-14,.cls-26{fill:brown;}.cls-14,.cls-19,.cls-21,.cls-24,.cls-25,.cls-26{fill-opacity:0.8;stroke-opacity:0.8;}.cls-14,.cls-17,.cls-19,.cls-21,.cls-23,.cls-24,.cls-25,.cls-26,.cls-27,.cls-28{stroke:#333;stroke-width:0.89px;}.cls-14,.cls-17{stroke-dasharray:0.8 0.8;}.cls-15{font-size:4.43px;}.cls-15,.cls-20{fill:#eee;}.cls-15,.cls-16,.cls-18,.cls-20,.cls-22{font-family:Palatino-Bold, Palatino;}.cls-16{opacity:0.8;}.cls-16,.cls-18{font-size:5.31px;}.cls-16,.cls-18,.cls-22{fill:#777;}.cls-17,.cls-25{fill:blue;}.cls-17,.cls-23,.cls-27,.cls-28{fill-opacity:0.3;stroke-opacity:0.3;}.cls-18{opacity:0.3;}.cls-19,.cls-27{fill:red;}.cls-19{stroke-dasharray:3.19 3.19;}.cls-21{fill:#ff0;}.cls-23,.cls-28{fill:purple;}.cls-23{stroke-dasharray:1.59 1.59;}.cls-24{fill:gray;}</style></defs><title>Asset 8</title><g id="Layer_2" data-name="Layer 2"><g id="Layer_1-2" data-name="Layer 1"><g id="two-9782"><path id="two-9783" class="cls-1" d="M.09.09H141.82V141.82H.09Z"/><path id="two-9784" class="cls-2" d="M35.52,35.52h70.87v70.87H35.52Z"/><path id="two-9785" class="cls-3" d="M.09.09H141.82"/><path id="two-9786" class="cls-3" d="M.09.09V141.82"/><path id="two-9787" class="cls-3" d="M.09,17.81H141.82"/><path id="two-9788" class="cls-3" d="M17.81.09V141.82"/><path id="two-9789" class="cls-3" d="M.09,35.52H141.82"/><path id="two-9790" class="cls-3" d="M35.52.09V141.82"/><path id="two-9791" class="cls-3" d="M.09,53.24H141.82"/><path id="two-9792" class="cls-3" d="M53.24.09V141.82"/><path id="two-9793" class="cls-3" d="M.09,71H141.82"/><path id="two-9794" class="cls-3" d="M71,.09V141.82"/><path id="two-9795" class="cls-3" d="M.09,88.67H141.82"/><path id="two-9796" class="cls-3" d="M88.67.09V141.82"/><path id="two-9797" class="cls-3" d="M.09,106.39H141.82"/><path id="two-9798" class="cls-3" d="M106.39.09V141.82"/><path id="two-9799" class="cls-3" d="M.09,124.1H141.82"/><path id="two-9800" class="cls-3" d="M124.1.09V141.82"/><path id="two-9801" class="cls-3" d="M.09,141.82H141.82"/><path id="two-9802" class="cls-3" d="M141.82.09V141.82"/><path id="two-9803" class="cls-4" d="M.09.09H141.82V141.82H.09Z"/><path id="two-9804" class="cls-4" d="M35.52,35.52h70.87v70.87H35.52Z"/><path id="two-9805" class="cls-5" d="M71,71V88.67"/><path id="two-9806" class="cls-5" d="M71,71H88.67"/><path id="two-9807" class="cls-6" d="M72.49,87.79,71,90.44l-1.54-2.65Z"/><path id="two-9808" class="cls-6" d="M87.79,69.42,90.44,71l-2.65,1.54V69.42Z"/><text class="cls-7" transform="translate(72.73 92.21)">x</text><text class="cls-7" transform="translate(90.24 67.41)">y</text><path id="two-9811" class="cls-8" d="M9,9H26.66"/><path id="two-9812" class="cls-8" d="M133,9V26.66"/><path id="two-9813" class="cls-9" d="M25.78,7.41,28.44,9l-2.66,1.53V7.41Z"/><path id="two-9814" class="cls-9" d="M134.5,25.78,133,28.44l-1.53-2.66Z"/><text class="cls-10" transform="translate(11.08 14.26)">right</text><text class="cls-10" transform="translate(111.31 17.81)">behind</text><text class="cls-10" transform="translate(67.37 46.15)">visible a<tspan class="cls-11" x="23.48" y="0">r</tspan><tspan x="25.78" y="0">ea</tspan></text><text class="cls-10" transform="translate(20.32 120.56)">invisible a<tspan class="cls-12" x="28.99" y="0">r</tspan><tspan class="cls-13" x="31.29" y="0">ea</tspan></text><path id="two-9819" class="cls-14" d="M51.2,71.85a2.66,2.66,0,1,1-2.37,2.92A2.67,2.67,0,0,1,51.2,71.85Z"/><text class="cls-15" transform="translate(50.36 76.27)">0</text><text class="cls-16" transform="translate(49.25 69.18)">G</text><path id="two-9822" class="cls-17" d="M116.88,99a2.66,2.66,0,1,1-3.73.47A2.67,2.67,0,0,1,116.88,99Z"/><text class="cls-15" transform="translate(114.14 102.84)">1</text><text class="cls-18" transform="translate(112.59 95.76)">M</text><path id="two-9825" class="cls-19" d="M101.46,79.89a10.63,10.63,0,1,1-14.48-4A10.64,10.64,0,0,1,101.46,79.89Z"/><text class="cls-20" transform="translate(90.44 86.9)">2</text><text class="cls-16" transform="translate(89.56 71.84)">M</text><path id="two-9828" class="cls-21" d="M61.19,91.14a5.31,5.31,0,1,1-7.25,2A5.32,5.32,0,0,1,61.19,91.14Z"/><text class="cls-22" transform="translate(56.78 97.53)">3</text><text class="cls-16" transform="translate(56.34 87.79)">G</text><path id="two-9831" class="cls-23" d="M141.71,23.82a5.31,5.31,0,1,1-6.27-4.13A5.32,5.32,0,0,1,141.71,23.82Z"/><text class="cls-20" transform="translate(134.73 26.66)">4</text><text class="cls-18" transform="translate(134.29 16.92)">G</text><path id="two-9834" class="cls-24" d="M43.5,57.39l7.36-1.5,1.49,7.37L45,64.76Z"/><text class="cls-20" transform="translate(46.15 62.1)">5</text><text class="cls-16" transform="translate(46 52.35)">R</text><path id="two-9837" class="cls-25" d="M75.59,102.73a5.31,5.31,0,1,1,4.11-6.3A5.32,5.32,0,0,1,75.59,102.73Z"/><text class="cls-20" transform="translate(72.73 99.3)">6</text><text class="cls-16" transform="translate(72.58 89.56)">R</text><path id="two-9840" class="cls-26" d="M88.63,40.84l-5.27-5.36,5.35-5.28L94,35.56Z"/><text class="cls-20" transform="translate(86.9 37.29)">7</text><text class="cls-16" transform="translate(86.75 27.55)">R</text><path id="two-9843" class="cls-27" d="M15.88,133.85l2.81,2.5-2.51,2.81-2.8-2.5Z"/><text class="cls-15" transform="translate(14.93 138.28)">8</text><text class="cls-18" transform="translate(14.11 131.19)">R</text><path id="two-9846" class="cls-28" d="M4.74,112.68,8,114.58l-1.92,3.24-3.23-1.91Z"/><text class="cls-15" transform="translate(4.3 117.02)">9</text><text class="cls-18" transform="translate(2.75 109.93)">M</text></g></g></g></svg>