<svg xmlns="http://www.w3.org/2000/svg" xmlns:xlink="http://www.w3.org/1999/xlink" viewBox="0 0 128.05 79.09"><defs><style>.cls-1,.cls-7{fill:none;}.cls-2{clip-path:url(#clip-path);}.cls-3{clip-path:url(#clip-path-2);}.cls-4{fill:#fff;}.cls-5{clip-path:url(#clip-path-3);}.cls-6{fill:#eee;}.cls-7{stroke:#fff;stroke-width:0.58px;}.cls-10,.cls-8{font-size:9.27px;fill:#242424;}.cls-8{font-family:LiberationSerif, LiberationSerif;}.cls-9{clip-path:url(#clip-path-4);}.cls-10{font-family:LiberationSerif-Bold, LiberationSerif Bold;font-weight:700;}.cls-11{clip-path:url(#clip-path-5);}.cls-12{clip-path:url(#clip-path-6);}</style><clipPath id="clip-path" transform="translate(0.29 0.29)"><rect class="cls-1" width="127.56" height="78.8"/></clipPath><clipPath id="clip-path-2" transform="translate(0.29 0.29)"><rect class="cls-1" width="127.47" height="78.8"/></clipPath><clipPath id="clip-path-3" transform="translate(0.29 0.29)"><rect class="cls-1" width="20.19" height="78.8"/></clipPath><clipPath id="clip-path-4" transform="translate(0.29 0.29)"><rect class="cls-1" x="19.03" width="20.77" height="78.8"/></clipPath><clipPath id="clip-path-5" transform="translate(0.29 0.29)"><rect class="cls-1" x="38.64" width="40.38" height="78.8"/></clipPath><clipPath id="clip-path-6" transform="translate(0.29 0.29)"><rect class="cls-1" x="77.86" width="49.6" height="78.8"/></clipPath></defs><title>Asset 10</title><g id="Layer_2" data-name="Layer 2"><g id="Layer_1-2" data-name="Layer 1"><g class="cls-2"><g class="cls-3"><rect class="cls-4" x="0.29" y="0.29" width="127.47" height="78.8"/></g><g class="cls-5"><rect class="cls-6" x="0.29" y="19.99" width="19.61" height="13.91"/><rect class="cls-7" x="0.29" y="19.99" width="19.61" height="13.91"/><text class="cls-8" transform="translate(7.78 31.58)">0</text><rect class="cls-4" x="0.29" y="0.29" width="19.61" height="19.7"/><rect class="cls-7" x="0.29" y="0.29" width="19.61" height="19.7"/></g><g class="cls-9"><rect class="cls-6" x="19.9" y="19.99" width="19.61" height="13.91"/><rect class="cls-7" x="19.9" y="19.99" width="19.61" height="13.91"/><text class="cls-8" transform="translate(27.39 31.58)">2</text><rect class="cls-4" x="19.9" y="0.29" width="19.61" height="19.7"/><rect class="cls-7" x="19.9" y="0.29" width="19.61" height="19.7"/><text class="cls-10" transform="translate(23.26 13.04)">obj</text></g><g class="cls-11"><rect class="cls-6" x="39.51" y="19.99" width="39.22" height="13.91"/><rect class="cls-7" x="39.51" y="19.99" width="39.22" height="13.91"/><text class="cls-8" transform="translate(49.6 31.58)">color</text><rect class="cls-4" x="39.51" y="0.29" width="39.22" height="19.7"/><rect class="cls-7" x="39.51" y="0.29" width="39.22" height="19.7"/><text class="cls-10" transform="translate(41.61 13.04)">attribute</text></g><g class="cls-12"><rect class="cls-6" x="78.73" y="19.99" width="49.03" height="13.91"/><rect class="cls-7" x="78.73" y="19.99" width="49.03" height="13.91"/><text class="cls-8" transform="translate(91.4 31.58)">purple</text><rect class="cls-4" x="78.73" y="0.29" width="49.03" height="19.7"/><rect class="cls-7" x="78.73" y="0.29" width="49.03" height="19.7"/><text class="cls-10" transform="translate(92.68 13.04)">value</text></g></g></g></g></svg>