<svg xmlns="http://www.w3.org/2000/svg" xmlns:xlink="http://www.w3.org/1999/xlink" viewBox="0 0 131.74 81.37"><defs><style>.cls-1,.cls-7{fill:none;}.cls-2{clip-path:url(#clip-path);}.cls-3{clip-path:url(#clip-path-2);}.cls-4{fill:#fff;}.cls-5{clip-path:url(#clip-path-3);}.cls-6{fill:#eee;}.cls-7{stroke:#fff;stroke-width:0.6px;}.cls-10,.cls-8{font-size:9.54px;fill:#242424;}.cls-8{font-family:LiberationSerif, LiberationSerif;}.cls-9{clip-path:url(#clip-path-4);}.cls-10{font-family:LiberationSerif-Bold, LiberationSerif Bold;font-weight:700;}.cls-11{clip-path:url(#clip-path-5);}.cls-12{clip-path:url(#clip-path-6);}</style><clipPath id="clip-path" transform="translate(0.3 0.3)"><rect class="cls-1" width="131.24" height="81.07"/></clipPath><clipPath id="clip-path-2" transform="translate(0.3 0.3)"><rect class="cls-1" width="131.14" height="81.07"/></clipPath><clipPath id="clip-path-3" transform="translate(0.3 0.3)"><rect class="cls-1" width="20.77" height="81.07"/></clipPath><clipPath id="clip-path-4" transform="translate(0.3 0.3)"><rect class="cls-1" x="19.58" width="21.37" height="81.07"/></clipPath><clipPath id="clip-path-5" transform="translate(0.3 0.3)"><rect class="cls-1" x="39.75" width="41.54" height="81.07"/></clipPath><clipPath id="clip-path-6" transform="translate(0.3 0.3)"><rect class="cls-1" x="80.11" width="51.03" height="81.07"/></clipPath></defs><title>Asset 3</title><g id="Layer_2" data-name="Layer 2"><g id="Layer_1-2" data-name="Layer 1"><g class="cls-2"><g class="cls-3"><rect class="cls-4" x="0.3" y="0.3" width="131.14" height="81.07"/></g><g class="cls-5"><rect class="cls-6" x="0.3" y="20.57" width="20.18" height="14.31"/><rect class="cls-7" x="0.3" y="20.57" width="20.18" height="14.31"/><text class="cls-8" transform="translate(8 32.49)">0</text><rect class="cls-4" x="0.3" y="34.87" width="20.18" height="14.31"/><rect class="cls-7" x="0.3" y="34.87" width="20.18" height="14.31"/><text class="cls-8" transform="translate(8 46.79)">1</text><rect class="cls-6" x="0.3" y="49.18" width="20.18" height="14.31"/><rect class="cls-7" x="0.3" y="49.18" width="20.18" height="14.31"/><text class="cls-8" transform="translate(8 61.1)">2</text><rect class="cls-4" x="0.3" y="63.48" width="20.18" height="14.31"/><rect class="cls-7" x="0.3" y="63.48" width="20.18" height="14.31"/><text class="cls-8" transform="translate(8 75.41)">3</text><rect class="cls-4" x="0.3" y="0.3" width="20.18" height="20.27"/><rect class="cls-7" x="0.3" y="0.3" width="20.18" height="20.27"/></g><g class="cls-9"><rect class="cls-6" x="20.47" y="20.57" width="20.18" height="14.31"/><rect class="cls-7" x="20.47" y="20.57" width="20.18" height="14.31"/><text class="cls-8" transform="translate(28.18 32.49)">3</text><rect class="cls-4" x="20.47" y="34.87" width="20.18" height="14.31"/><rect class="cls-7" x="20.47" y="34.87" width="20.18" height="14.31"/><text class="cls-8" transform="translate(28.18 46.79)">0</text><rect class="cls-6" x="20.47" y="49.18" width="20.18" height="14.31"/><rect class="cls-7" x="20.47" y="49.18" width="20.18" height="14.31"/><text class="cls-8" transform="translate(28.18 61.1)">0</text><rect class="cls-4" x="20.47" y="63.48" width="20.18" height="14.31"/><rect class="cls-7" x="20.47" y="63.48" width="20.18" height="14.31"/><text class="cls-8" transform="translate(28.18 75.41)">2</text><rect class="cls-4" x="20.47" y="0.3" width="20.18" height="20.27"/><rect class="cls-7" x="20.47" y="0.3" width="20.18" height="20.27"/><text class="cls-10" transform="translate(23.93 13.41)">obj</text></g><g class="cls-11"><rect class="cls-6" x="40.65" y="20.57" width="40.35" height="14.31"/><rect class="cls-7" x="40.65" y="20.57" width="40.35" height="14.31"/><text class="cls-8" transform="translate(45.46 32.49)">position</text><rect class="cls-4" x="40.65" y="34.87" width="40.35" height="14.31"/><rect class="cls-7" x="40.65" y="34.87" width="40.35" height="14.31"/><text class="cls-8" transform="translate(45.46 46.79)">position</text><rect class="cls-6" x="40.65" y="49.18" width="40.35" height="14.31"/><rect class="cls-7" x="40.65" y="49.18" width="40.35" height="14.31"/><text class="cls-8" transform="translate(45.46 61.1)">position</text><rect class="cls-4" x="40.65" y="63.48" width="40.35" height="14.31"/><rect class="cls-7" x="40.65" y="63.48" width="40.35" height="14.31"/><text class="cls-8" transform="translate(49.97 75.41)">shape</text><rect class="cls-4" x="40.65" y="0.3" width="40.35" height="20.27"/><rect class="cls-7" x="40.65" y="0.3" width="40.35" height="20.27"/><text class="cls-10" transform="translate(42.81 13.41)">attribute</text></g><g class="cls-12"><rect class="cls-6" x="81" y="20.57" width="50.44" height="14.31"/><rect class="cls-7" x="81" y="20.57" width="50.44" height="14.31"/><text class="cls-8" transform="translate(93.37 32.49)">front,2</text><rect class="cls-4" x="81" y="34.87" width="50.44" height="14.31"/><rect class="cls-7" x="81" y="34.87" width="50.44" height="14.31"/><text class="cls-8" transform="translate(93.64 46.79)">right,1</text><rect class="cls-6" x="81" y="49.18" width="50.44" height="14.31"/><rect class="cls-7" x="81" y="49.18" width="50.44" height="14.31"/><text class="cls-8" transform="translate(85.43 61.1)">front-left,2</text><rect class="cls-4" x="81" y="63.48" width="50.44" height="14.31"/><rect class="cls-7" x="81" y="63.48" width="50.44" height="14.31"/><text class="cls-8" transform="translate(93.77 75.41)">sphere</text><rect class="cls-4" x="81" y="0.3" width="50.44" height="20.27"/><rect class="cls-7" x="81" y="0.3" width="50.44" height="20.27"/><text class="cls-10" transform="translate(95.36 13.41)">value</text></g></g></g></g></svg>