<svg xmlns="http://www.w3.org/2000/svg" xmlns:xlink="http://www.w3.org/1999/xlink" viewBox="0 0 152.36 141.99"><defs><style>.cls-1,.cls-7{fill:none;}.cls-2{clip-path:url(#clip-path);}.cls-3{clip-path:url(#clip-path-2);}.cls-4{fill:#fff;}.cls-5{clip-path:url(#clip-path-3);}.cls-6{fill:#eee;}.cls-7{stroke:#fff;stroke-width:0.51px;}.cls-8,.cls-9{font-size:8.1px;fill:#242424;}.cls-8{font-family:LiberationSerif, LiberationSerif;}.cls-9{font-family:LiberationSerif-Bold, LiberationSerif Bold;font-weight:700;}.cls-10{clip-path:url(#clip-path-4);}.cls-11{clip-path:url(#clip-path-5);}.cls-12{clip-path:url(#clip-path-6);}.cls-13{clip-path:url(#clip-path-7);}.cls-14{clip-path:url(#clip-path-8);}</style><clipPath id="clip-path" transform="translate(0.25 0.25)"><rect class="cls-1" width="151.78" height="141.73"/></clipPath><clipPath id="clip-path-2" transform="translate(0.25 0.25)"><rect class="cls-1" width="151.86" height="141.73"/></clipPath><clipPath id="clip-path-3" transform="translate(0.25 0.25)"><rect class="cls-1" width="14.31" height="141.73"/></clipPath><clipPath id="clip-path-4" transform="translate(0.25 0.25)"><rect class="cls-1" x="13.3" width="28.62" height="141.73"/></clipPath><clipPath id="clip-path-5" transform="translate(0.25 0.25)"><rect class="cls-1" x="40.91" width="28.62" height="141.73"/></clipPath><clipPath id="clip-path-6" transform="translate(0.25 0.25)"><rect class="cls-1" x="68.52" width="28.62" height="141.73"/></clipPath><clipPath id="clip-path-7" transform="translate(0.25 0.25)"><rect class="cls-1" x="96.13" width="28.62" height="141.73"/></clipPath><clipPath id="clip-path-8" transform="translate(0.25 0.25)"><rect class="cls-1" x="123.74" width="28.12" height="141.73"/></clipPath></defs><title>Asset 1</title><g id="Layer_2" data-name="Layer 2"><g id="Layer_1-2" data-name="Layer 1"><g class="cls-2"><g class="cls-3"><rect class="cls-4" x="0.25" y="0.25" width="151.86" height="141.73"/></g><g class="cls-5"><rect class="cls-6" x="0.25" y="17.46" width="13.81" height="12.15"/><rect class="cls-7" x="0.25" y="17.46" width="13.81" height="12.15"/><text class="cls-8" transform="translate(5.13 27.59)">0</text><rect class="cls-4" x="0.25" y="29.61" width="13.81" height="12.15"/><rect class="cls-7" x="0.25" y="29.61" width="13.81" height="12.15"/><text class="cls-8" transform="translate(5.13 39.74)">1</text><rect class="cls-6" x="0.25" y="41.76" width="13.81" height="12.15"/><rect class="cls-7" x="0.25" y="41.76" width="13.81" height="12.15"/><text class="cls-8" transform="translate(5.13 51.88)">2</text><rect class="cls-4" x="0.25" y="53.91" width="13.81" height="12.15"/><rect class="cls-7" x="0.25" y="53.91" width="13.81" height="12.15"/><text class="cls-8" transform="translate(5.13 64.03)">3</text><rect class="cls-6" x="0.25" y="66.06" width="13.81" height="12.15"/><rect class="cls-7" x="0.25" y="66.06" width="13.81" height="12.15"/><text class="cls-8" transform="translate(5.13 76.18)">4</text><rect class="cls-4" x="0.25" y="78.21" width="13.81" height="12.15"/><rect class="cls-7" x="0.25" y="78.21" width="13.81" height="12.15"/><text class="cls-8" transform="translate(5.13 88.33)">5</text><rect class="cls-6" x="0.25" y="90.35" width="13.81" height="12.15"/><rect class="cls-7" x="0.25" y="90.35" width="13.81" height="12.15"/><text class="cls-8" transform="translate(5.13 100.48)">6</text><rect class="cls-4" x="0.25" y="102.5" width="13.81" height="12.15"/><rect class="cls-7" x="0.25" y="102.5" width="13.81" height="12.15"/><text class="cls-8" transform="translate(5.13 112.63)">7</text><rect class="cls-6" x="0.25" y="114.65" width="13.81" height="12.15"/><rect class="cls-7" x="0.25" y="114.65" width="13.81" height="12.15"/><text class="cls-8" transform="translate(5.13 124.78)">8</text><rect class="cls-4" x="0.25" y="126.8" width="13.81" height="12.15"/><rect class="cls-7" x="0.25" y="126.8" width="13.81" height="12.15"/><text class="cls-8" transform="translate(5.13 136.92)">9</text><rect class="cls-4" x="0.25" y="0.25" width="13.81" height="17.21"/><rect class="cls-7" x="0.25" y="0.25" width="13.81" height="17.21"/><text class="cls-9" transform="translate(1.53 11.39)">obj</text></g><g class="cls-10"><rect class="cls-6" x="14.06" y="17.46" width="27.61" height="12.15"/><rect class="cls-7" x="14.06" y="17.46" width="27.61" height="12.15"/><text class="cls-8" transform="translate(14.59 27.59)">medium</text><rect class="cls-4" x="14.06" y="29.61" width="27.61" height="12.15"/><rect class="cls-7" x="14.06" y="29.61" width="27.61" height="12.15"/><text class="cls-8" transform="translate(19.09 39.74)">small</text><rect class="cls-6" x="14.06" y="41.76" width="27.61" height="12.15"/><rect class="cls-7" x="14.06" y="41.76" width="27.61" height="12.15"/><text class="cls-8" transform="translate(19.84 51.88)">lar</text><text class="cls-8" transform="translate(28.24 51.88)">ge</text><rect class="cls-4" x="14.06" y="53.91" width="27.61" height="12.15"/><rect class="cls-7" x="14.06" y="53.91" width="27.61" height="12.15"/><text class="cls-8" transform="translate(14.59 64.03)">medium</text><rect class="cls-6" x="14.06" y="66.06" width="27.61" height="12.15"/><rect class="cls-7" x="14.06" y="66.06" width="27.61" height="12.15"/><text class="cls-8" transform="translate(14.59 76.18)">medium</text><rect class="cls-4" x="14.06" y="78.21" width="27.61" height="12.15"/><rect class="cls-7" x="14.06" y="78.21" width="27.61" height="12.15"/><text class="cls-8" transform="translate(19.09 88.33)">small</text><rect class="cls-6" x="14.06" y="90.35" width="27.61" height="12.15"/><rect class="cls-7" x="14.06" y="90.35" width="27.61" height="12.15"/><text class="cls-8" transform="translate(14.59 100.48)">medium</text><rect class="cls-4" x="14.06" y="102.5" width="27.61" height="12.15"/><rect class="cls-7" x="14.06" y="102.5" width="27.61" height="12.15"/><text class="cls-8" transform="translate(19.09 112.63)">small</text><rect class="cls-6" x="14.06" y="114.65" width="27.61" height="12.15"/><rect class="cls-7" x="14.06" y="114.65" width="27.61" height="12.15"/><text class="cls-8" transform="translate(14.59 124.78)">medium</text><rect class="cls-4" x="14.06" y="126.8" width="27.61" height="12.15"/><rect class="cls-7" x="14.06" y="126.8" width="27.61" height="12.15"/><text class="cls-8" transform="translate(14.59 136.92)">medium</text><rect class="cls-4" x="14.06" y="0.25" width="27.61" height="17.21"/><rect class="cls-7" x="14.06" y="0.25" width="27.61" height="17.21"/><text class="cls-9" transform="translate(21.57 11.39)">size</text></g><g class="cls-11"><rect class="cls-6" x="41.67" y="17.46" width="27.61" height="12.15"/><rect class="cls-7" x="41.67" y="17.46" width="27.61" height="12.15"/><text class="cls-8" transform="translate(44.45 27.59)">yellow</text><rect class="cls-4" x="41.67" y="29.61" width="27.61" height="12.15"/><rect class="cls-7" x="41.67" y="29.61" width="27.61" height="12.15"/><text class="cls-8" transform="translate(45.13 39.74)">brown</text><rect class="cls-6" x="41.67" y="41.76" width="27.61" height="12.15"/><rect class="cls-7" x="41.67" y="41.76" width="27.61" height="12.15"/><text class="cls-8" transform="translate(48.5 51.88)">blue</text><rect class="cls-4" x="41.67" y="53.91" width="27.61" height="12.15"/><rect class="cls-7" x="41.67" y="53.91" width="27.61" height="12.15"/><text class="cls-8" transform="translate(47.83 64.03)">cyan</text><rect class="cls-6" x="41.67" y="66.06" width="27.61" height="12.15"/><rect class="cls-7" x="41.67" y="66.06" width="27.61" height="12.15"/><text class="cls-8" transform="translate(45.13 76.18)">brown</text><rect class="cls-4" x="41.67" y="78.21" width="27.61" height="12.15"/><rect class="cls-7" x="41.67" y="78.21" width="27.61" height="12.15"/><text class="cls-8" transform="translate(45.13 88.33)">purple</text><rect class="cls-6" x="41.67" y="90.35" width="27.61" height="12.15"/><rect class="cls-7" x="41.67" y="90.35" width="27.61" height="12.15"/><text class="cls-8" transform="translate(50.3 100.48)">red</text><rect class="cls-4" x="41.67" y="102.5" width="27.61" height="12.15"/><rect class="cls-7" x="41.67" y="102.5" width="27.61" height="12.15"/><text class="cls-8" transform="translate(45.13 112.63)">brown</text><rect class="cls-6" x="41.67" y="114.65" width="27.61" height="12.15"/><rect class="cls-7" x="41.67" y="114.65" width="27.61" height="12.15"/><text class="cls-8" transform="translate(44.45 124.78)">yellow</text><rect class="cls-4" x="41.67" y="126.8" width="27.61" height="12.15"/><rect class="cls-7" x="41.67" y="126.8" width="27.61" height="12.15"/><text class="cls-8" transform="translate(44.45 136.92)">yellow</text><rect class="cls-4" x="41.67" y="0.25" width="27.61" height="17.21"/><rect class="cls-7" x="41.67" y="0.25" width="27.61" height="17.21"/><text class="cls-9" transform="translate(46.7 11.39)">color</text></g><g class="cls-12"><rect class="cls-6" x="69.28" y="17.46" width="27.61" height="12.15"/><rect class="cls-7" x="69.28" y="17.46" width="27.61" height="12.15"/><text class="cls-8" transform="translate(74.09 27.59)">metal</text><rect class="cls-4" x="69.28" y="29.61" width="27.61" height="12.15"/><rect class="cls-7" x="69.28" y="29.61" width="27.61" height="12.15"/><text class="cls-8" transform="translate(74.98 39.74)">glass</text><rect class="cls-6" x="69.28" y="41.76" width="27.61" height="12.15"/><rect class="cls-7" x="69.28" y="41.76" width="27.61" height="12.15"/><text class="cls-8" transform="translate(74.98 51.88)">glass</text><rect class="cls-4" x="69.28" y="53.91" width="27.61" height="12.15"/><rect class="cls-7" x="69.28" y="53.91" width="27.61" height="12.15"/><text class="cls-8" transform="translate(74.98 64.03)">glass</text><rect class="cls-6" x="69.28" y="66.06" width="27.61" height="12.15"/><rect class="cls-7" x="69.28" y="66.06" width="27.61" height="12.15"/><text class="cls-8" transform="translate(72.52 76.18)">rubber</text><rect class="cls-4" x="69.28" y="78.21" width="27.61" height="12.15"/><rect class="cls-7" x="69.28" y="78.21" width="27.61" height="12.15"/><text class="cls-8" transform="translate(74.09 88.33)">metal</text><rect class="cls-6" x="69.28" y="90.35" width="27.61" height="12.15"/><rect class="cls-7" x="69.28" y="90.35" width="27.61" height="12.15"/><text class="cls-8" transform="translate(74.98 100.48)">glass</text><rect class="cls-4" x="69.28" y="102.5" width="27.61" height="12.15"/><rect class="cls-7" x="69.28" y="102.5" width="27.61" height="12.15"/><text class="cls-8" transform="translate(74.09 112.63)">metal</text><rect class="cls-6" x="69.28" y="114.65" width="27.61" height="12.15"/><rect class="cls-7" x="69.28" y="114.65" width="27.61" height="12.15"/><text class="cls-8" transform="translate(74.09 124.78)">metal</text><rect class="cls-4" x="69.28" y="126.8" width="27.61" height="12.15"/><rect class="cls-7" x="69.28" y="126.8" width="27.61" height="12.15"/><text class="cls-8" transform="translate(72.52 136.92)">rubber</text><rect class="cls-4" x="69.28" y="0.25" width="27.61" height="17.21"/><rect class="cls-7" x="69.28" y="0.25" width="27.61" height="17.21"/><text class="cls-9" transform="translate(68.33 11.39)">material</text></g><g class="cls-13"><rect class="cls-6" x="96.89" y="17.46" width="27.61" height="12.15"/><rect class="cls-7" x="96.89" y="17.46" width="27.61" height="12.15"/><text class="cls-8" transform="translate(100.13 27.59)">sphere</text><rect class="cls-4" x="96.89" y="29.61" width="27.61" height="12.15"/><rect class="cls-7" x="96.89" y="29.61" width="27.61" height="12.15"/><text class="cls-8" transform="translate(103.05 39.74)">cube</text><rect class="cls-6" x="96.89" y="41.76" width="27.61" height="12.15"/><rect class="cls-7" x="96.89" y="41.76" width="27.61" height="12.15"/><text class="cls-8" transform="translate(97.43 51.88)">cylinder</text><rect class="cls-4" x="96.89" y="53.91" width="27.61" height="12.15"/><rect class="cls-7" x="96.89" y="53.91" width="27.61" height="12.15"/><text class="cls-8" transform="translate(103.05 64.03)">cube</text><rect class="cls-6" x="96.89" y="66.06" width="27.61" height="12.15"/><rect class="cls-7" x="96.89" y="66.06" width="27.61" height="12.15"/><text class="cls-8" transform="translate(97.43 76.18)">cylinder</text><rect class="cls-4" x="96.89" y="78.21" width="27.61" height="12.15"/><rect class="cls-7" x="96.89" y="78.21" width="27.61" height="12.15"/><text class="cls-8" transform="translate(100.13 88.33)">sphere</text><rect class="cls-6" x="96.89" y="90.35" width="27.61" height="12.15"/><rect class="cls-7" x="96.89" y="90.35" width="27.61" height="12.15"/><text class="cls-8" transform="translate(103.05 100.48)">cube</text><rect class="cls-4" x="96.89" y="102.5" width="27.61" height="12.15"/><rect class="cls-7" x="96.89" y="102.5" width="27.61" height="12.15"/><text class="cls-8" transform="translate(103.05 112.63)">cube</text><rect class="cls-6" x="96.89" y="114.65" width="27.61" height="12.15"/><rect class="cls-7" x="96.89" y="114.65" width="27.61" height="12.15"/><text class="cls-8" transform="translate(103.05 124.78)">cube</text><rect class="cls-4" x="96.89" y="126.8" width="27.61" height="12.15"/><rect class="cls-7" x="96.89" y="126.8" width="27.61" height="12.15"/><text class="cls-8" transform="translate(103.05 136.92)">cube</text><rect class="cls-4" x="96.89" y="0.25" width="27.61" height="17.21"/><rect class="cls-7" x="96.89" y="0.25" width="27.61" height="17.21"/><text class="cls-9" transform="translate(100.79 11.39)">shape</text></g><g class="cls-14"><rect class="cls-6" x="124.5" y="17.46" width="27.61" height="12.15"/><rect class="cls-7" x="124.5" y="17.46" width="27.61" height="12.15"/><text class="cls-8" transform="translate(129.19 27.59)">15,18</text><rect class="cls-4" x="124.5" y="29.61" width="27.61" height="12.15"/><rect class="cls-7" x="124.5" y="29.61" width="27.61" height="12.15"/><text class="cls-8" transform="translate(129.19 39.74)">31,10</text><rect class="cls-6" x="124.5" y="41.76" width="27.61" height="12.15"/><rect class="cls-7" x="124.5" y="41.76" width="27.61" height="12.15"/><text class="cls-8" transform="translate(131.89 51.88)">8,-3</text><rect class="cls-4" x="124.5" y="53.91" width="27.61" height="12.15"/><rect class="cls-7" x="124.5" y="53.91" width="27.61" height="12.15"/><text class="cls-8" transform="translate(127.84 64.03)">32,-18</text><rect class="cls-6" x="124.5" y="66.06" width="27.61" height="12.15"/><rect class="cls-7" x="124.5" y="66.06" width="27.61" height="12.15"/><text class="cls-8" transform="translate(131.22 76.18)">6,14</text><rect class="cls-4" x="124.5" y="78.21" width="27.61" height="12.15"/><rect class="cls-7" x="124.5" y="78.21" width="27.61" height="12.15"/><text class="cls-8" transform="translate(127.84 88.33)">-14,10</text><rect class="cls-6" x="124.5" y="90.35" width="27.61" height="12.15"/><rect class="cls-7" x="124.5" y="90.35" width="27.61" height="12.15"/><text class="cls-8" transform="translate(126.5 100.48)">-38,-39</text><rect class="cls-4" x="124.5" y="102.5" width="27.61" height="12.15"/><rect class="cls-7" x="124.5" y="102.5" width="27.61" height="12.15"/><text class="cls-8" transform="translate(133.24 112.63)">2,7</text><rect class="cls-6" x="124.5" y="114.65" width="27.61" height="12.15"/><rect class="cls-7" x="124.5" y="114.65" width="27.61" height="12.15"/><text class="cls-8" transform="translate(127.84 124.78)">-33,16</text><rect class="cls-4" x="124.5" y="126.8" width="27.61" height="12.15"/><rect class="cls-7" x="124.5" y="126.8" width="27.61" height="12.15"/><text class="cls-8" transform="translate(127.84 136.92)">-34,27</text><rect class="cls-4" x="124.5" y="0.25" width="27.61" height="17.21"/><rect class="cls-7" x="124.5" y="0.25" width="27.61" height="17.21"/><text class="cls-9" transform="translate(124.55 11.39)">position</text></g></g></g></g></svg>