<svg xmlns="http://www.w3.org/2000/svg" viewBox="0 0 144.15 142.39"><defs><style>.cls-1{fill:#f5f5f5;}.cls-2,.cls-3,.cls-5,.cls-8{fill:#fff;}.cls-3{stroke:#aaa;stroke-width:0.09px;}.cls-4{fill:none;}.cls-4,.cls-5,.cls-6{stroke:#000;}.cls-4,.cls-8{stroke-width:0.18px;}.cls-5,.cls-6,.cls-9{stroke-width:0.44px;}.cls-10,.cls-14,.cls-15,.cls-17,.cls-18,.cls-20,.cls-7{isolation:isolate;font-weight:700;}.cls-14,.cls-20,.cls-7{font-size:7.02px;}.cls-10,.cls-7{font-family:Palatino-BoldItalic, Palatino;font-style:italic;}.cls-8,.cls-9{stroke:#ccc;}.cls-10,.cls-9{fill:#ccc;}.cls-10{font-size:6.14px;}.cls-11{letter-spacing:-0.02em;}.cls-12{letter-spacing:-0.02em;}.cls-13,.cls-26{fill:#ff0;}.cls-13,.cls-19,.cls-22,.cls-23,.cls-25{fill-opacity:0.8;stroke-opacity:0.8;}.cls-13,.cls-16,.cls-19,.cls-21,.cls-22,.cls-23,.cls-24,.cls-25,.cls-26{stroke:#333;stroke-width:0.88px;}.cls-14,.cls-15,.cls-18{fill:#777;}.cls-14,.cls-15,.cls-17,.cls-18,.cls-20{font-family:Palatino-Bold, Palatino;}.cls-15{opacity:0.8;}.cls-15,.cls-18{font-size:5.26px;}.cls-16,.cls-22,.cls-25{fill:brown;}.cls-16,.cls-21,.cls-24,.cls-26{fill-opacity:0.3;stroke-opacity:0.3;}.cls-17{font-size:4.39px;}.cls-17,.cls-20{fill:#eee;}.cls-18{opacity:0.3;}.cls-19{fill:blue;stroke-dasharray:3.16 3.16;}.cls-21{fill:aqua;}.cls-22{stroke-dasharray:1.58 1.58;}.cls-23{fill:purple;}.cls-24{fill:red;}</style></defs><title>Asset 2</title><g id="Layer_2" data-name="Layer 2"><g id="Layer_1-2" data-name="Layer 1"><g id="two-536"><path id="two-537" class="cls-1" d="M3.67,1.91H144.06V142.3H3.67Z"/><path id="two-538" class="cls-2" d="M38.77,37H109v70.2H38.77Z"/><path id="two-539" class="cls-3" d="M3.67,1.91H144.06"/><path id="two-540" class="cls-3" d="M3.67,1.91V142.3"/><path id="two-541" class="cls-3" d="M3.67,19.46H144.06"/><path id="two-542" class="cls-3" d="M21.22,1.91V142.3"/><path id="two-543" class="cls-3" d="M3.67,37H144.06"/><path id="two-544" class="cls-3" d="M38.77,1.91V142.3"/><path id="two-545" class="cls-3" d="M3.67,54.56H144.06"/><path id="two-546" class="cls-3" d="M56.32,1.91V142.3"/><path id="two-547" class="cls-3" d="M3.67,72.11H144.06"/><path id="two-548" class="cls-3" d="M73.87,1.91V142.3"/><path id="two-549" class="cls-3" d="M3.67,89.66H144.06"/><path id="two-550" class="cls-3" d="M91.42,1.91V142.3"/><path id="two-551" class="cls-3" d="M3.67,107.21H144.06"/><path id="two-552" class="cls-3" d="M109,1.91V142.3"/><path id="two-553" class="cls-3" d="M3.67,124.76H144.06"/><path id="two-554" class="cls-3" d="M126.51,1.91V142.3"/><path id="two-555" class="cls-3" d="M3.67,142.3H144.06"/><path id="two-556" class="cls-3" d="M144.06,1.91V142.3"/><path id="two-557" class="cls-4" d="M3.67,1.91H144.06V142.3H3.67Z"/><path id="two-558" class="cls-4" d="M38.77,37H109v70.2H38.77Z"/><path id="two-559" class="cls-5" d="M73.87,72.11V89.66"/><path id="two-560" class="cls-5" d="M73.87,72.11H91.42"/><path id="two-561" class="cls-6" d="M75.39,88.78l-1.52,2.63-1.52-2.63Z"/><path id="two-562" class="cls-6" d="M90.54,70.59l2.63,1.52-2.63,1.52v-3Z"/><text class="cls-7" transform="translate(75.62 93.17)">x</text><text class="cls-7" transform="translate(92.97 68.6)">y</text><path id="two-565" class="cls-8" d="M12.45,10.69H30"/><path id="two-566" class="cls-8" d="M135.29,10.69V28.24"/><path id="two-567" class="cls-9" d="M29.12,9.17l2.63,1.52-2.63,1.52v-3Z"/><path id="two-568" class="cls-9" d="M136.81,27.36,135.29,30l-1.52-2.63Z"/><text class="cls-10" transform="translate(14.56 15.95)">right</text><text class="cls-10" transform="translate(113.85 19.46)">behind</text><text class="cls-10" transform="translate(70.31 47.54)">visible a<tspan class="cls-11" x="23.25" y="0">r</tspan><tspan x="25.54" y="0">ea</tspan></text><text class="cls-10" transform="translate(23.71 121.25)">invisible a<tspan class="cls-12" x="28.72" y="0">r</tspan><tspan x="31" y="0">ea</tspan></text><path id="two-573" class="cls-13" d="M109.83,101.36a5.27,5.27,0,1,1-1.44-7.3A5.29,5.29,0,0,1,109.83,101.36Z"/><text class="cls-14" transform="translate(103.7 100.19)">0</text><text class="cls-15" transform="translate(102.82 90.53)">M</text><path id="two-576" class="cls-16" d="M92.78,124.26l.89,3.62-3.62.88-.88-3.62Z"/><text class="cls-17" transform="translate(90.32 128.27)">1</text><text class="cls-18" transform="translate(89.22 121.25)">G</text><path id="two-579" class="cls-19" d="M77.3,80.22a10.52,10.52,0,1,1-14.62-2.77A10.53,10.53,0,0,1,77.3,80.22Z"/><text class="cls-20" transform="translate(66.85 87.9)">2</text><text class="cls-15" transform="translate(66.41 72.99)">G</text><path id="two-582" class="cls-21" d="M38,131.32,39.23,124l7.34,1.24-1.24,7.35Z"/><text class="cls-14" transform="translate(40.52 130.02)">3</text><text class="cls-18" transform="translate(40.09 120.37)">G</text><path id="two-585" class="cls-22" d="M102.67,85.76a5.26,5.26,0,1,1-1.11-7.36A5.27,5.27,0,0,1,102.67,85.76Z"/><text class="cls-20" transform="translate(96.68 84.39)">4</text><text class="cls-15" transform="translate(96.53 74.74)">R</text><path id="two-588" class="cls-23" d="M92.44,45.11A2.64,2.64,0,1,1,89,46.52,2.64,2.64,0,0,1,92.44,45.11Z"/><text class="cls-17" transform="translate(90.32 49.29)">5</text><text class="cls-15" transform="translate(88.78 42.27)">M</text><path id="two-591" class="cls-24" d="M3.39.57l6.89,2.81L7.47,10.27.57,7.47Z"/><text class="cls-20" transform="translate(3.67 7.18)">6</text><text class="cls-18" transform="translate(3.23 15.95)">G</text><path id="two-594" class="cls-25" d="M84.62,77.76,84,74.09l3.67-.62.61,3.68Z"/><text class="cls-17" transform="translate(85.06 77.37)">7</text><text class="cls-15" transform="translate(83.52 70.35)">M</text><path id="two-597" class="cls-26" d="M98.07,17.75l.32-7.44,7.43.33-.32,7.44Z"/><text class="cls-14" transform="translate(100.19 15.95)">8</text><text class="cls-18" transform="translate(99.31 24.73)">M</text><path id="two-600" class="cls-26" d="M126.47,13.19l-6,4.46L116,11.7l6-4.47Z"/><text class="cls-14" transform="translate(119.49 14.2)">9</text><text class="cls-18" transform="translate(119.35 22.97)">R</text></g></g></g></svg>