<svg xmlns="http://www.w3.org/2000/svg" viewBox="0 0 144.04 141.91"><defs><style>.cls-1{fill:#f5f5f5;}.cls-2,.cls-3,.cls-5,.cls-8{fill:#fff;}.cls-3{stroke:#aaa;stroke-width:0.09px;}.cls-4{fill:none;}.cls-4,.cls-5,.cls-6{stroke:#000;}.cls-4,.cls-8{stroke-width:0.18px;}.cls-5,.cls-6,.cls-9{stroke-width:0.44px;}.cls-10,.cls-15,.cls-16,.cls-18,.cls-19,.cls-7{isolation:isolate;font-weight:700;}.cls-15,.cls-18,.cls-7{font-size:7.09px;}.cls-10,.cls-7{font-family:Palatino-BoldItalic, Palatino;font-style:italic;}.cls-8,.cls-9{stroke:#ccc;}.cls-10,.cls-9{fill:#ccc;}.cls-10{font-size:6.2px;}.cls-11{letter-spacing:-0.02em;}.cls-12{letter-spacing:-0.02em;}.cls-13{letter-spacing:0em;}.cls-14,.cls-25{fill:aqua;}.cls-14,.cls-20,.cls-21,.cls-23{fill-opacity:0.3;stroke-opacity:0.3;}.cls-14,.cls-17,.cls-20,.cls-21,.cls-22,.cls-23,.cls-24,.cls-25{stroke:#333;stroke-width:0.89px;}.cls-15,.cls-16,.cls-19{fill:#777;}.cls-15,.cls-16,.cls-18,.cls-19{font-family:Palatino-Bold, Palatino;}.cls-16{opacity:0.3;}.cls-16,.cls-19{font-size:5.31px;}.cls-17,.cls-21{fill:blue;}.cls-17,.cls-22,.cls-24,.cls-25{fill-opacity:0.8;stroke-opacity:0.8;}.cls-18{fill:#eee;}.cls-19{opacity:0.8;}.cls-20{fill:green;}.cls-21{stroke-dasharray:3.19 3.19;}.cls-22{fill:red;}.cls-23{fill:brown;stroke-dasharray:1.59 1.59;}.cls-24{fill:purple;}</style></defs><title>Asset 2</title><g id="Layer_2" data-name="Layer 2"><g id="Layer_1-2" data-name="Layer 1"><g id="two-1474"><path id="two-1475" class="cls-1" d="M2.22.09H144V141.82H2.22Z"/><path id="two-1476" class="cls-2" d="M37.65,35.52h70.87v70.87H37.65Z"/><path id="two-1477" class="cls-3" d="M2.22.09H144"/><path id="two-1478" class="cls-3" d="M2.22.09V141.82"/><path id="two-1479" class="cls-3" d="M2.22,17.81H144"/><path id="two-1480" class="cls-3" d="M19.93.09V141.82"/><path id="two-1481" class="cls-3" d="M2.22,35.52H144"/><path id="two-1482" class="cls-3" d="M37.65.09V141.82"/><path id="two-1483" class="cls-3" d="M2.22,53.24H144"/><path id="two-1484" class="cls-3" d="M55.37.09V141.82"/><path id="two-1485" class="cls-3" d="M2.22,71H144"/><path id="two-1486" class="cls-3" d="M73.08.09V141.82"/><path id="two-1487" class="cls-3" d="M2.22,88.67H144"/><path id="two-1488" class="cls-3" d="M90.8.09V141.82"/><path id="two-1489" class="cls-3" d="M2.22,106.39H144"/><path id="two-1490" class="cls-3" d="M108.52.09V141.82"/><path id="two-1491" class="cls-3" d="M2.22,124.1H144"/><path id="two-1492" class="cls-3" d="M126.23.09V141.82"/><path id="two-1493" class="cls-3" d="M2.22,141.82H144"/><path id="two-1494" class="cls-3" d="M144,.09V141.82"/><path id="two-1495" class="cls-4" d="M2.22.09H144V141.82H2.22Z"/><path id="two-1496" class="cls-4" d="M37.65,35.52h70.87v70.87H37.65Z"/><path id="two-1497" class="cls-5" d="M73.08,71V88.67"/><path id="two-1498" class="cls-5" d="M73.08,71H90.8"/><path id="two-1499" class="cls-6" d="M74.62,87.79l-1.53,2.65-1.54-2.65Z"/><path id="two-1500" class="cls-6" d="M89.91,69.42,92.57,71l-2.66,1.54V69.42Z"/><text class="cls-7" transform="translate(74.86 92.21)">x</text><text class="cls-7" transform="translate(92.37 67.41)">y</text><path id="two-1503" class="cls-8" d="M11.08,9H28.79"/><path id="two-1504" class="cls-8" d="M135.09,9V26.66"/><path id="two-1505" class="cls-9" d="M27.91,7.41,30.56,9l-2.65,1.53V7.41Z"/><path id="two-1506" class="cls-9" d="M136.63,25.78l-1.54,2.66-1.53-2.66Z"/><text class="cls-10" transform="translate(13.21 14.26)">right</text><text class="cls-10" transform="translate(113.44 17.81)">behind</text><text class="cls-10" transform="translate(69.49 46.15)">visible a<tspan class="cls-11" x="23.48" y="0">r</tspan><tspan x="25.78" y="0">ea</tspan></text><text class="cls-10" transform="translate(22.45 120.56)">invisible a<tspan class="cls-12" x="28.99" y="0">r</tspan><tspan class="cls-13" x="31.29" y="0">ea</tspan></text><path id="two-1511" class="cls-14" d="M113.74,131.7l-7.5-.61.6-7.49,7.49.6Z"/><text class="cls-15" transform="translate(108.52 129.42)">0</text><text class="cls-16" transform="translate(108.07 119.67)">G</text><path id="two-1514" class="cls-17" d="M67.06,80.71l14,5.47-5.48,14-14-5.48Z"/><text class="cls-18" transform="translate(69.54 92.21)">1</text><text class="cls-19" transform="translate(69.39 77.16)">R</text><path id="two-1517" class="cls-20" d="M26.68,96a5.32,5.32,0,1,1-6.54,3.69A5.32,5.32,0,0,1,26.68,96Z"/><text class="cls-18" transform="translate(23.48 102.84)">2</text><text class="cls-16" transform="translate(22.59 93.1)">M</text><path id="two-1520" class="cls-21" d="M11.26,30a10.63,10.63,0,1,1,8.49,12.42A10.61,10.61,0,0,1,11.26,30Z"/><text class="cls-18" transform="translate(19.93 33.75)">3</text><text class="cls-16" transform="translate(19.05 18.69)">M</text><path id="two-1523" class="cls-20" d="M100.74,20.5l-2,7.24-7.25-2,2-7.24Z"/><text class="cls-18" transform="translate(94.34 24.89)">4</text><text class="cls-16" transform="translate(93.9 15.15)">G</text><path id="two-1526" class="cls-22" d="M111.09,77.19,97,82.38l-5.2-14.12,14.12-5.18Z"/><text class="cls-18" transform="translate(99.66 74.5)">5</text><text class="cls-19" transform="translate(98.77 59.44)">M</text><path id="two-1529" class="cls-23" d="M9,87.55A5.31,5.31,0,1,1,10,80.09,5.32,5.32,0,0,1,9,87.55Z"/><text class="cls-18" transform="translate(3.99 85.13)">6</text><text class="cls-16" transform="translate(3.55 75.38)">G</text><path id="two-1532" class="cls-24" d="M49.28,38.28A5.31,5.31,0,1,1,47.5,31,5.33,5.33,0,0,1,49.28,38.28Z"/><text class="cls-18" transform="translate(42.97 37.29)">7</text><text class="cls-19" transform="translate(42.08 27.55)">M</text><path id="two-1535" class="cls-25" d="M42.68,72.58a5.32,5.32,0,1,1,.15,7.52A5.3,5.3,0,0,1,42.68,72.58Z"/><text class="cls-15" transform="translate(44.74 78.04)">8</text><text class="cls-19" transform="translate(43.85 68.3)">M</text><path id="two-1538" class="cls-25" d="M64.47,54.56l12.61-8.17L85.24,59,72.63,67.18Z"/><text class="cls-15" transform="translate(73.08 58.55)">9</text><text class="cls-19" transform="translate(72.2 43.49)">M</text></g></g></g></svg>